<svg width="30" height="26" viewBox="0 0 30 26" fill="none" xmlns="http://www.w3.org/2000/svg">
<path opacity="0.5" fill-rule="evenodd" clip-rule="evenodd" d="M5.5 21C7.433 21 9 17.6421 9 13.5C9 9.35786 7.433 6 5.5 6C3.567 6 2 9.35786 2 13.5C2 17.6421 3.567 21 5.5 21ZM5.5 10C5.22386 10 5 10.2239 5 10.5V16.5C5 16.7761 5.22386 17 5.5 17C5.77614 17 6 16.7761 6 16.5V10.5C6 10.2239 5.77614 10 5.5 10Z" fill="black"/>
<path opacity="0.5" fill-rule="evenodd" clip-rule="evenodd" d="M16.1213 7.82845C15.7308 8.21897 15.7308 8.85214 16.1213 9.24266L16.7977 9.91902L18.4278 9.42192L17.9235 11.0448L18.7422 11.8636L20.3723 11.3665L19.868 12.9894L22.4853 15.6066L21.7782 16.3137C21.3877 16.7043 21.3876 17.3374 21.7782 17.7279L23.8995 19.8493C24.29 20.2398 24.9232 20.2398 25.3137 19.8493L28.8492 16.3137C29.2398 15.9232 29.2398 15.29 28.8492 14.8995L26.7279 12.7782C26.3374 12.3877 25.7042 12.3877 25.3137 12.7782L24.6066 13.4853L18.2426 7.12134C17.8521 6.73082 17.219 6.73082 16.8284 7.12134L16.1213 7.82845ZM24.8423 17.4922C24.4518 17.1017 24.4518 16.4686 24.8423 16.078L25.078 15.8423C25.4685 15.4518 26.1017 15.4518 26.4922 15.8423C26.8827 16.2328 26.8827 16.866 26.4922 17.2565L26.2565 17.4922C25.866 17.8828 25.2328 17.8828 24.8423 17.4922Z" fill="black"/>
<path opacity="0.5" d="M18 14.5C18.2761 14.5 18.5 14.2761 18.5 14C18.5 13.7239 18.2761 13.5 18 13.5V14.5ZM9.64645 13.6464C9.45118 13.8417 9.45118 14.1583 9.64645 14.3536L12.8284 17.5355C13.0237 17.7308 13.3403 17.7308 13.5355 17.5355C13.7308 17.3403 13.7308 17.0237 13.5355 16.8284L10.7071 14L13.5355 11.1716C13.7308 10.9763 13.7308 10.6597 13.5355 10.4645C13.3403 10.2692 13.0237 10.2692 12.8284 10.4645L9.64645 13.6464ZM18 13.5L10 13.5V14.5L18 14.5V13.5Z" fill="black"/>
</svg>
