<svg width="25" height="25" viewBox="0 0 25 25" fill="none" xmlns="http://www.w3.org/2000/svg">
<path opacity="1.0" fill-rule="evenodd" clip-rule="evenodd" d="M12.8008 15C12.3204 17.913 11.0239 20 9.5 20C7.567 20 6 16.6421 6 12.5C6 8.35786 7.567 5 9.5 5C11.0239 5 12.3204 7.08702 12.8008 10H10V9.5C10 9.22386 9.77614 9 9.5 9C9.22386 9 9 9.22386 9 9.5V15.5C9 15.7761 9.22386 16 9.5 16C9.77614 16 10 15.7761 10 15.5V15H12.8008Z" fill="#0a0afa"/>
<path opacity="1.0" fill-rule="evenodd" clip-rule="evenodd" d="M15 16C14.4477 16 14 15.5523 14 15V14H10V11H14V10C14 9.44772 14.4477 9 15 9H18C18.5523 9 19 9.44772 19 10V15C19 15.5523 18.5523 16 18 16H15ZM17 13.6667C16.4477 13.6667 16 13.219 16 12.6667V12.3333C16 11.781 16.4477 11.3333 17 11.3333C17.5523 11.3333 18 11.781 18 12.3333V12.6667C18 13.219 17.5523 13.6667 17 13.6667Z" fill="#0a0afa"/>
</svg>
