<svg width="30" height="25" viewBox="0 0 30 25" fill="none" xmlns="http://www.w3.org/2000/svg">
<path opacity="1.0" fill-rule="evenodd" clip-rule="evenodd" d="M14.5183 5.18421L13.4885 3.34395C13.1452 3.42807 12.8038 3.5393 12.4672 3.67876C12.1305 3.81821 11.8105 3.98091 11.5082 4.16421L12.0813 6.19362C11.7454 6.45374 11.4484 6.75281 11.1941 7.08141L9.16475 6.50834C8.79197 7.12241 8.51506 7.79092 8.34444 8.48873L10.1846 9.51844C10.1321 9.93064 10.1307 10.3522 10.1842 10.7736L8.34398 11.8034C8.42809 12.1467 8.53933 12.488 8.67878 12.8247C8.81824 13.1614 8.98093 13.4814 9.16423 13.7836L11.1936 13.2105C11.4538 13.5464 11.7528 13.8435 12.0814 14.0978L11.5084 16.1271C12.1224 16.4999 12.7909 16.7768 13.4888 16.9474L14.5185 15.1073C14.9307 15.1598 15.3522 15.1612 15.7736 15.1076L16.8034 16.9479C17.1467 16.8638 17.4881 16.7525 17.8247 16.6131C18.1614 16.4736 18.4814 16.3109 18.7837 16.1276L18.2106 14.0982C18.5464 13.8381 18.8435 13.539 19.0978 13.2104L21.1271 13.7835C21.4999 13.1694 21.7768 12.5009 21.9474 11.8031L20.1073 10.7734C20.1598 10.3612 20.1612 9.93967 20.1077 9.51823L21.9479 8.48847C21.8638 8.14513 21.7526 7.80381 21.6131 7.46713C21.4736 7.13046 21.3109 6.81045 21.1276 6.50819L19.0982 7.0813C18.8381 6.74542 18.539 6.44836 18.2104 6.19403L18.7835 4.16472C18.1694 3.79194 17.5009 3.51504 16.8031 3.34442L15.7734 5.18458C15.3612 5.13206 14.9397 5.13064 14.5183 5.18421ZM15.9113 11.9937C16.9318 11.571 17.4164 10.401 16.9937 9.38055C16.571 8.36006 15.4011 7.87546 14.3806 8.29816C13.3601 8.72086 12.8755 9.89079 13.2982 10.9113C13.7209 11.9318 14.8908 12.4164 15.9113 11.9937Z" fill="#FFFF00"/>
<path opacity="1.0" fill-rule="evenodd" clip-rule="evenodd" d="M3.48875 17.8402C3.32409 17.7999 3.16107 17.7537 3 17.7018V18H2V20H28V18H27V17.7894C26.9345 17.8075 26.869 17.8246 26.8034 17.8406L25.7736 16.0004C25.3522 16.0539 24.9307 16.0525 24.5185 16L23.4888 17.8402C23.3241 17.7999 23.1611 17.7537 23 17.7018V18H22V17.8387C21.9346 17.8573 21.869 17.8748 21.8034 17.8913L20.7737 16.0004C20.3522 16.0554 19.9307 16.054 19.5185 16L18.4888 17.8909C18.3241 17.8495 18.1611 17.802 18 17.7486V18H17V17.7894C16.9345 17.8075 16.869 17.8246 16.8034 17.8406L15.7736 16.0004C15.3522 16.0539 14.9307 16.0525 14.5185 16L13.4888 17.8402C13.3241 17.7999 13.1611 17.7537 13 17.7018V18H12V17.7894C11.9345 17.8075 11.869 17.8246 11.8034 17.8406L10.7736 16.0004C10.3522 16.0539 9.93067 16.0525 9.51847 16L8.48875 17.8402C8.32409 17.7999 8.16107 17.7537 8 17.7018V18H7V17.7894C6.93455 17.8075 6.86901 17.8246 6.80339 17.8406L5.77362 16.0004C5.35218 16.0539 4.93067 16.0525 4.51847 16L3.48875 17.8402Z" fill="#FFFF00"/>
</svg>
