<svg width="30" height="25" viewBox="0 0 30 25" fill="none" xmlns="http://www.w3.org/2000/svg">
<g clip-path="url(#clip0)">
<path opacity="0.5" fill-rule="evenodd" clip-rule="evenodd" d="M9.51826 3.18421L8.48849 1.34395C8.14515 1.42807 7.80383 1.5393 7.46716 1.67876C7.13048 1.81821 6.81047 1.98091 6.50822 2.16421L7.08132 4.19362C6.74544 4.45374 6.44839 4.75281 6.19406 5.08141L4.16475 4.50834C3.79197 5.12241 3.51506 5.79092 3.34444 6.48873L5.18461 7.51844C5.13209 7.93064 5.13066 8.35216 5.18423 8.7736L3.34398 9.80336C3.42809 10.1467 3.53933 10.488 3.67878 10.8247C3.81824 11.1614 3.98093 11.4814 4.16423 11.7836L6.19364 11.2105C6.45377 11.5464 6.75283 11.8435 7.08144 12.0978L6.50836 14.1271C7.12244 14.4999 7.79094 14.7768 8.48875 14.9474L9.51847 13.1073C9.93067 13.1598 10.3522 13.1612 10.7736 13.1076L11.8034 14.9479C12.1467 14.8638 12.4881 14.7525 12.8247 14.6131C13.1614 14.4736 13.4814 14.3109 13.7837 14.1276L13.2106 12.0982C13.5464 11.8381 13.8435 11.539 14.0978 11.2104L16.1271 11.7835C16.4999 11.1694 16.7768 10.5009 16.9474 9.8031L15.1073 8.77339C15.1598 8.36119 15.1612 7.93967 15.1077 7.51823L16.9479 6.48847C16.8638 6.14513 16.7526 5.80381 16.6131 5.46713C16.4736 5.13046 16.3109 4.81045 16.1276 4.50819L14.0982 5.0813C13.8381 4.74542 13.539 4.44836 13.2104 4.19403L13.7835 2.16472C13.1694 1.79194 12.5009 1.51504 11.8031 1.34442L10.7734 3.18458C10.3612 3.13206 9.9397 3.13064 9.51826 3.18421ZM10.9113 9.99368C11.9318 9.57098 12.4164 8.40104 11.9937 7.38055C11.571 6.36006 10.4011 5.87546 9.38057 6.29816C8.36008 6.72086 7.87548 7.89079 8.29818 8.91128C8.72088 9.93177 9.89082 10.4164 10.9113 9.99368Z" fill="black"/>
<path opacity="0.5" fill-rule="evenodd" clip-rule="evenodd" d="M3.48875 20.8402C3.32409 20.7999 3.16107 20.7537 3 20.7018V21H2V23H28V21H27V20.7894C26.9345 20.8075 26.869 20.8246 26.8034 20.8406L25.7736 19.0004C25.3522 19.0539 24.9307 19.0525 24.5185 19L23.4888 20.8402C23.3241 20.7999 23.1611 20.7537 23 20.7018V21H22V20.8387C21.9346 20.8573 21.869 20.8748 21.8034 20.8913L20.7737 19.0004C20.3522 19.0554 19.9307 19.054 19.5185 19L18.4888 20.8909C18.3241 20.8495 18.1611 20.802 18 20.7486V21H17V20.7894C16.9345 20.8075 16.869 20.8246 16.8034 20.8406L15.7736 19.0004C15.3522 19.0539 14.9307 19.0525 14.5185 19L13.4888 20.8402C13.3241 20.7999 13.1611 20.7537 13 20.7018V21H12V20.7894C11.9345 20.8075 11.869 20.8246 11.8034 20.8406L10.7736 19.0004C10.3522 19.0539 9.93067 19.0525 9.51847 19L8.48875 20.8402C8.32409 20.7999 8.16107 20.7537 8 20.7018V21H7V20.7894C6.93455 20.8075 6.86901 20.8246 6.80339 20.8406L5.77362 19.0004C5.35218 19.0539 4.93067 19.0525 4.51847 19L3.48875 20.8402Z" fill="black"/>
<path opacity="0.5" d="M23.5 5C23.5 4.72386 23.2761 4.5 23 4.5C22.7239 4.5 22.5 4.72386 22.5 5H23.5ZM22.6464 13.3536C22.8417 13.5488 23.1583 13.5488 23.3536 13.3536L26.5355 10.1716C26.7308 9.97631 26.7308 9.65973 26.5355 9.46447C26.3403 9.2692 26.0237 9.2692 25.8284 9.46447L23 12.2929L20.1716 9.46447C19.9763 9.2692 19.6597 9.2692 19.4645 9.46447C19.2692 9.65973 19.2692 9.97631 19.4645 10.1716L22.6464 13.3536ZM22.5 5V13H23.5V5H22.5Z" fill="black"/>
</g>
<defs>
<clipPath id="clip0">
<rect width="30" height="25" fill="white"/>
</clipPath>
</defs>
</svg>
