<svg width="30" height="25" viewBox="0 0 30 25" fill="none" xmlns="http://www.w3.org/2000/svg">
<path fill-rule="evenodd" clip-rule="evenodd" d="M15 21C19.9706 21 24 16.9706 24 12C24 7.02944 19.9706 3 15 3C10.0294 3 6 7.02944 6 12C6 16.9706 10.0294 21 15 21ZM15 6C15.5523 6 16 6.44772 16 7V14C16 14.5523 15.5523 15 15 15C14.4477 15 14 14.5523 14 14V7C14 6.44772 14.4477 6 15 6ZM16 17C16 17.5523 15.5523 18 15 18C14.4477 18 14 17.5523 14 17C14 16.4477 14.4477 16 15 16C15.5523 16 16 16.4477 16 17Z" fill="#d60000" fill-opacity="0.75"/>
</svg>
