<svg width="30" height="25" viewBox="0 0 30 25" fill="none" xmlns="http://www.w3.org/2000/svg">
<g clip-path="url(#clip0)">
<path fill-rule="evenodd" clip-rule="evenodd" d="M14.5183 3.18421L13.4885 1.34395C13.1452 1.42807 12.8038 1.5393 12.4672 1.67876C12.1305 1.81821 11.8105 1.98091 11.5082 2.16421L12.0813 4.19362C11.7454 4.45374 11.4484 4.75281 11.1941 5.08141L9.16475 4.50834C8.79197 5.12241 8.51506 5.79092 8.34444 6.48873L10.1846 7.51844C10.1321 7.93064 10.1307 8.35216 10.1842 8.7736L8.34398 9.80336C8.42809 10.1467 8.53933 10.488 8.67878 10.8247C8.81824 11.1614 8.98093 11.4814 9.16423 11.7836L11.1936 11.2105C11.4538 11.5464 11.7528 11.8435 12.0814 12.0978L11.5084 14.1271C12.1224 14.4999 12.7909 14.7768 13.4888 14.9474L14.5185 13.1073C14.9307 13.1598 15.3522 13.1612 15.7736 13.1076L16.8034 14.9479C17.1467 14.8638 17.4881 14.7525 17.8247 14.6131C18.1614 14.4736 18.4814 14.3109 18.7837 14.1276L18.2106 12.0982C18.5464 11.8381 18.8435 11.539 19.0978 11.2104L21.1271 11.7835C21.4999 11.1694 21.7768 10.5009 21.9474 9.8031L20.1073 8.77339C20.1598 8.36119 20.1612 7.93967 20.1077 7.51823L21.9479 6.48847C21.8638 6.14513 21.7526 5.80381 21.6131 5.46713C21.4736 5.13046 21.3109 4.81045 21.1276 4.50819L19.0982 5.0813C18.8381 4.74542 18.539 4.44836 18.2104 4.19403L18.7835 2.16472C18.1694 1.79194 17.5009 1.51504 16.8031 1.34442L15.7734 3.18458C15.3612 3.13206 14.9397 3.13064 14.5183 3.18421ZM15.9113 9.99368C16.9318 9.57098 17.4164 8.40104 16.9937 7.38055C16.571 6.36006 15.4011 5.87546 14.3806 6.29816C13.3601 6.72086 12.8755 7.89079 13.2982 8.91128C13.7209 9.93177 14.8908 10.4164 15.9113 9.99368Z" fill="#702020"/>
<path fill-rule="evenodd" clip-rule="evenodd" d="M3.48875 20.8402C3.32409 20.7999 3.16107 20.7537 3 20.7018V21H2V23H28V21H27V20.7894C26.9345 20.8075 26.869 20.8246 26.8034 20.8406L25.7736 19.0004C25.3522 19.0539 24.9307 19.0525 24.5185 19L23.4888 20.8402C23.3241 20.7999 23.1611 20.7537 23 20.7018V21H22V20.8387C21.9346 20.8573 21.869 20.8748 21.8034 20.8913L20.7737 19.0004C20.3522 19.0554 19.9307 19.054 19.5185 19L18.4888 20.8909C18.3241 20.8495 18.1611 20.802 18 20.7486V21H17V20.7894C16.9345 20.8075 16.869 20.8246 16.8034 20.8406L15.7736 19.0004C15.3522 19.0539 14.9307 19.0525 14.5185 19L13.4888 20.8402C13.3241 20.7999 13.1611 20.7537 13 20.7018V21H12V20.7894C11.9345 20.8075 11.869 20.8246 11.8034 20.8406L10.7736 19.0004C10.3522 19.0539 9.93067 19.0525 9.51847 19L8.48875 20.8402C8.32409 20.7999 8.16107 20.7537 8 20.7018V21H7V20.7894C6.93455 20.8075 6.86901 20.8246 6.80339 20.8406L5.77362 19.0004C5.35218 19.0539 4.93067 19.0525 4.51847 19L3.48875 20.8402Z" fill="#702020"/>
</g>
<defs>
<clipPath id="clip0">
<rect width="30" height="25" fill="white"/>
</clipPath>
</defs>
</svg>
