<svg width="30" height="26" viewBox="0 0 30 26" fill="none" xmlns="http://www.w3.org/2000/svg">
<path opacity="0.5" fill-rule="evenodd" clip-rule="evenodd" d="M9.5 21C11.0239 21 12.3204 18.913 12.8008 16H10V16.5C10 16.7761 9.77614 17 9.5 17C9.22386 17 9 16.7761 9 16.5V13.9567L9.54862 15H10.7065L11.5076 13.4959L12.2986 15H16V16C16 16.5523 16.4477 17 17 17H20C20.5523 17 21 16.5523 21 16V11C21 10.4477 20.5523 10 20 10H17C16.4477 10 16 10.4477 16 11V12H9V10.5C9 10.2239 9.22386 10 9.5 10C9.77614 10 10 10.2239 10 10.5V11H12.8008C12.3204 8.08702 11.0239 6 9.5 6C7.67161 6 6.17067 9.00427 6.01358 12.8348C6.00465 12.8886 6 12.9437 6 13V13.5V14C6 14.0563 6.00465 14.1114 6.01358 14.1652C6.17067 17.9957 7.67161 21 9.5 21ZM18 13.6667C18 14.219 18.4477 14.6667 19 14.6667C19.5523 14.6667 20 14.219 20 13.6667V13.3333C20 12.781 19.5523 12.3333 19 12.3333C18.4477 12.3333 18 12.781 18 13.3333V13.6667Z" fill="black"/>
<path opacity="0.5" d="M15 4.5C14.7239 4.5 14.5 4.72386 14.5 5C14.5 5.27614 14.7239 5.5 15 5.5V4.5ZM23.3536 5.35355C23.5488 5.15829 23.5488 4.84171 23.3536 4.64645L20.1716 1.46447C19.9763 1.2692 19.6597 1.2692 19.4645 1.46447C19.2692 1.65973 19.2692 1.97631 19.4645 2.17157L22.2929 5L19.4645 7.82843C19.2692 8.02369 19.2692 8.34027 19.4645 8.53553C19.6597 8.7308 19.9763 8.7308 20.1716 8.53553L23.3536 5.35355ZM15 5.5L23 5.5V4.5L15 4.5V5.5Z" fill="black"/>
</svg>
