<svg width="25" height="25" viewBox="0 0 25 25" fill="none" xmlns="http://www.w3.org/2000/svg">
<path opacity="1.0" fill-rule="evenodd" clip-rule="evenodd" d="M8.5 20C10.433 20 12 16.6421 12 12.5C12 8.35786 10.433 5 8.5 5C6.567 5 5 8.35786 5 12.5C5 16.6421 6.567 20 8.5 20ZM8.5 9C8.22386 9 8 9.22386 8 9.5V15.5C8 15.7761 8.22386 16 8.5 16C8.77614 16 9 15.7761 9 15.5V9.5C9 9.22386 8.77614 9 8.5 9Z" fill="#FFFF75"/>
<path opacity="1.0" fill-rule="evenodd" clip-rule="evenodd" d="M16 5C15.4477 5 15 5.44771 15 6V6.95651L16.5041 7.75765L15 8.54862V9.70651L16.5041 10.5076L15 11.2986V15H14C13.4477 15 13 15.4477 13 16V19C13 19.5523 13.4477 20 14 20H19C19.5523 20 20 19.5523 20 19V16C20 15.4477 19.5523 15 19 15H18V6C18 5.44772 17.5523 5 17 5H16ZM15.3333 18C15.3333 17.4477 15.781 17 16.3333 17H16.6667C17.219 17 17.6667 17.4477 17.6667 18C17.6667 18.5523 17.219 19 16.6667 19H16.3333C15.781 19 15.3333 18.5523 15.3333 18Z" fill="#FFFF75"/>
</svg>
