<svg width="30" height="25" viewBox="0 0 30 25" fill="none" xmlns="http://www.w3.org/2000/svg">
<path opacity="0.5" fill-rule="evenodd" clip-rule="evenodd" d="M9.51826 5.18421L8.48849 3.34395C8.14515 3.42807 7.80383 3.5393 7.46716 3.67876C7.13048 3.81821 6.81047 3.98091 6.50822 4.16421L7.08132 6.19362C6.74544 6.45374 6.44839 6.75281 6.19406 7.08141L4.16475 6.50834C3.79197 7.12241 3.51506 7.79092 3.34444 8.48873L5.18461 9.51844C5.13209 9.93064 5.13066 10.3522 5.18423 10.7736L3.34398 11.8034C3.42809 12.1467 3.53933 12.488 3.67878 12.8247C3.81824 13.1614 3.98093 13.4814 4.16423 13.7836L6.19364 13.2105C6.45377 13.5464 6.75283 13.8435 7.08144 14.0978L6.50836 16.1271C7.12244 16.4999 7.79094 16.7768 8.48875 16.9474L9.51847 15.1073C9.93067 15.1598 10.3522 15.1612 10.7736 15.1076L11.8034 16.9479C12.1467 16.8638 12.4881 16.7525 12.8247 16.6131C13.1614 16.4736 13.4814 16.3109 13.7837 16.1276L13.2106 14.0982C13.5464 13.8381 13.8435 13.539 14.0978 13.2104L16.1271 13.7835C16.4999 13.1694 16.7768 12.5009 16.9474 11.8031L15.1073 10.7734C15.1598 10.3612 15.1612 9.93967 15.1077 9.51823L16.9479 8.48847C16.8638 8.14513 16.7526 7.80381 16.6131 7.46713C16.4736 7.13046 16.3109 6.81045 16.1276 6.50819L14.0982 7.0813C13.8381 6.74542 13.539 6.44836 13.2104 6.19403L13.7835 4.16472C13.1694 3.79194 12.5009 3.51504 11.8031 3.34442L10.7734 5.18458C10.3612 5.13206 9.9397 5.13064 9.51826 5.18421ZM10.9113 11.9937C11.9318 11.571 12.4164 10.401 11.9937 9.38055C11.571 8.36006 10.4011 7.87546 9.38057 8.29816C8.36008 8.72086 7.87548 9.89079 8.29818 10.9113C8.72088 11.9318 9.89082 12.4164 10.9113 11.9937Z" fill="black"/>
<path opacity="0.5" fill-rule="evenodd" clip-rule="evenodd" d="M3.48875 17.8402C3.32409 17.7999 3.16107 17.7537 3 17.7018V18H2V20H28V18H27V17.7894C26.9345 17.8075 26.869 17.8246 26.8034 17.8406L25.7736 16.0004C25.3522 16.0539 24.9307 16.0525 24.5185 16L23.4888 17.8402C23.3241 17.7999 23.1611 17.7537 23 17.7018V18H22V17.8387C21.9346 17.8573 21.869 17.8748 21.8034 17.8913L20.7737 16.0004C20.3522 16.0554 19.9307 16.054 19.5185 16L18.4888 17.8909C18.3241 17.8495 18.1611 17.802 18 17.7486V18H17V17.7894C16.9345 17.8075 16.869 17.8246 16.8034 17.8406L15.7736 16.0004C15.3522 16.0539 14.9307 16.0525 14.5185 16L13.4888 17.8402C13.3241 17.7999 13.1611 17.7537 13 17.7018V18H12V17.7894C11.9345 17.8075 11.869 17.8246 11.8034 17.8406L10.7736 16.0004C10.3522 16.0539 9.93067 16.0525 9.51847 16L8.48875 17.8402C8.32409 17.7999 8.16107 17.7537 8 17.7018V18H7V17.7894C6.93455 17.8075 6.86901 17.8246 6.80339 17.8406L5.77362 16.0004C5.35218 16.0539 4.93067 16.0525 4.51847 16L3.48875 17.8402Z" fill="black"/>
<path opacity="0.5" d="M22.5 14C22.5 14.2761 22.7239 14.5 23 14.5C23.2761 14.5 23.5 14.2761 23.5 14H22.5ZM23.3536 5.64645C23.1583 5.45118 22.8417 5.45118 22.6464 5.64645L19.4645 8.82843C19.2692 9.02369 19.2692 9.34027 19.4645 9.53553C19.6597 9.7308 19.9763 9.7308 20.1716 9.53553L23 6.70711L25.8284 9.53553C26.0237 9.7308 26.3403 9.7308 26.5355 9.53553C26.7308 9.34027 26.7308 9.02369 26.5355 8.82843L23.3536 5.64645ZM23.5 14V6H22.5V14H23.5Z" fill="black"/>
</svg>
