<svg width="27" height="23" viewBox="0 0 27 23" fill="none" xmlns="http://www.w3.org/2000/svg">
<path fill-rule="evenodd" clip-rule="evenodd" d="M22.3917 12.9134L22.3917 12.9135L22.3917 12.9135L13.435 21.8702L4.47833 12.9135L4.47836 12.9134L4.47834 12.9134C2.00502 10.4401 2.00502 6.43006 4.47834 3.95674C6.95166 1.48342 10.9617 1.48342 13.435 3.95674C15.9084 1.48342 19.9184 1.48342 22.3917 3.95674C24.865 6.43006 24.865 10.4401 22.3917 12.9134ZM13.435 21.8701L12.6886 21.1237L12.6887 21.1237L12.7279 21.1629C13.1184 21.5534 13.7516 21.5534 14.1421 21.1629L14.9278 20.3773L14.9278 20.3773L13.435 21.8701ZM17.7782 14.7782C17.3877 15.1687 16.7545 15.1687 16.364 14.7782L13.5356 11.9498L10.7071 14.7782C10.3166 15.1687 9.68342 15.1687 9.29289 14.7782C8.90237 14.3877 8.90237 13.7545 9.29289 13.364L12.1213 10.5355L9.29291 7.70711C8.90239 7.31658 8.90239 6.68342 9.29291 6.29289C9.68344 5.90237 10.3166 5.90237 10.7071 6.29289L13.5356 9.12132L16.364 6.29292C16.7545 5.90239 17.3876 5.90239 17.7782 6.29292C18.1687 6.68344 18.1687 7.31661 17.7782 7.70713L14.9498 10.5355L17.7782 13.364C18.1687 13.7545 18.1687 14.3877 17.7782 14.7782Z" fill="#ffbbbb"/>
</svg>
