<svg width="27" height="23" viewBox="0 0 27 23" fill="none" xmlns="http://www.w3.org/2000/svg">
<path fill-rule="evenodd" clip-rule="evenodd" d="M13.9497 20.0208L21.7279 12.2426C24.0711 9.89949 24.0711 6.10051 21.7279 3.75736C19.3848 1.41421 15.5858 1.41421 13.2426 3.75736C10.8995 1.41421 7.10051 1.41421 4.75736 3.75736C2.41421 6.10051 2.41421 9.89949 4.75736 12.2426L12.5355 20.0208C12.9261 20.4113 13.5592 20.4113 13.9497 20.0208ZM19.5355 5.80761C19.9261 6.19814 19.9261 6.8313 19.5355 7.22183L12.4645 14.2929L11.7574 15L10.3431 13.5858L9.63603 12.8787L8.22182 11.4645C7.8313 11.0739 7.8313 10.4408 8.22182 10.0503C8.61235 9.65973 9.24551 9.65973 9.63603 10.0503L11.0502 11.4645L11.7574 12.1716L18.1213 5.80761C18.5118 5.41709 19.145 5.41709 19.5355 5.80761Z" fill="#88ff88"/>
</svg>
