<svg width="30" height="25" viewBox="0 0 30 25" fill="none" xmlns="http://www.w3.org/2000/svg">
<path opacity="0.5" fill-rule="evenodd" clip-rule="evenodd" d="M16.1889 2.26814L12.8991 7.28668L12.1881 5.58765C9.72221 6.67053 8 9.13414 8 12C8 15.2962 10.2783 18.0603 13.3461 18.8035L12.6373 21.7192C8.25474 20.6576 5 16.7089 5 12C5 7.88791 7.48199 4.35552 11.0296 2.8192L10.3053 1.08838L16.1889 2.26814ZM16.6539 5.19652C19.7217 5.93965 22 8.70376 22 12C22 14.5574 20.6286 16.7945 18.581 18.0159L17.7872 16.1193L14.4977 21.1379L17.3609 21.712L17.3627 21.7192C17.3679 21.718 17.3731 21.7167 17.3783 21.7155L20.3813 22.3175L19.7476 20.8034C22.8752 19.1131 25 15.8047 25 12C25 7.29109 21.7453 3.34237 17.3627 2.28074L16.6539 5.19652Z" fill="black"/>
</svg>
