<svg width="14" height="25" viewBox="0 0 14 25" fill="none" xmlns="http://www.w3.org/2000/svg">
<g clip-path="url(#clip0)">
<g opacity="1.0">
<path d="M4.12796 3.94306C3.54217 3.35728 2.59243 3.35728 2.00664 3.94306C1.42085 4.52885 1.42085 5.4786 2.00664 6.06438L4.12796 3.94306ZM9.07771 13.1355L10.1384 14.1961L12.2597 12.0748L11.199 11.0141L9.07771 13.1355ZM2.00664 6.06438L9.07771 13.1355L11.199 11.0141L4.12796 3.94306L2.00664 6.06438Z" fill="#008f00"/>
<path d="M2.11977 18.1908C1.53398 18.7766 1.53398 19.7263 2.11977 20.3121C2.70555 20.8979 3.6553 20.8979 4.24109 20.3121L2.11977 18.1908ZM11.3122 13.2411L12.3728 12.1804L10.2515 10.0591L9.19084 11.1197L11.3122 13.2411ZM4.24109 20.3121L11.3122 13.2411L9.19084 11.1197L2.11977 18.1908L4.24109 20.3121Z" fill="#008f00"/>
</g>
</g>
<defs>
<clipPath id="clip0">
<rect width="14" height="25" fill="white"/>
</clipPath>
</defs>
</svg>
