<svg width="30" height="25" viewBox="0 0 30 25" fill="none" xmlns="http://www.w3.org/2000/svg">
<path opacity="0.5" fill-rule="evenodd" clip-rule="evenodd" d="M25 12C25 17.5228 20.5228 22 15 22C9.47715 22 5 17.5228 5 12C5 6.47715 9.47715 2 15 2C20.5228 2 25 6.47715 25 12ZM22 12C22 15.866 18.866 19 15 19C11.134 19 8 15.866 8 12C8 8.13401 11.134 5 15 5C18.866 5 22 8.13401 22 12ZM15 16C17.2091 16 19 14.2091 19 12C19 9.79086 17.2091 8 15 8C12.7909 8 11 9.79086 11 12C11 14.2091 12.7909 16 15 16Z" fill="black"/>
</svg>
