<svg width="30" height="25" viewBox="0 0 30 25" fill="none" xmlns="http://www.w3.org/2000/svg">
<path opacity="0.5" fill-rule="evenodd" clip-rule="evenodd" d="M25 12C25 17.5228 20.5228 22 15 22C9.47715 22 5 17.5228 5 12C5 6.47715 9.47715 2 15 2C20.5228 2 25 6.47715 25 12ZM21 12C21 15.3137 18.3137 18 15 18C11.6863 18 9 15.3137 9 12C9 8.68629 11.6863 6 15 6C18.3137 6 21 8.68629 21 12ZM15 16C17.2091 16 19 14.2091 19 12C19 9.79086 17.2091 8 15 8C12.7909 8 11 9.79086 11 12C11 14.2091 12.7909 16 15 16Z" fill="black"/>
</svg>
