<svg width="24" height="24" viewBox="0 0 24 24" fill="none" xmlns="http://www.w3.org/2000/svg">
<g clip-path="url(#clip0)">
<path fill-rule="evenodd" clip-rule="evenodd" d="M7.83825 3.01211C8.02579 2.82457 8.28014 2.71921 8.54536 2.71921L15.3706 2.71921C15.6358 2.71921 15.8902 2.82457 16.0777 3.01211L20.9039 7.83828C21.0914 8.02582 21.1968 8.28017 21.1968 8.54539L21.1968 15.3706C21.1968 15.6358 21.0914 15.8902 20.9039 16.0777L16.0777 20.9039C15.8902 21.0914 15.6358 21.1968 15.3706 21.1968L8.54536 21.1968C8.28014 21.1968 8.02579 21.0914 7.83825 20.9039L3.01208 16.0777C2.82454 15.8902 2.71918 15.6358 2.71918 15.3706L2.71918 8.54539C2.71918 8.28017 2.82454 8.02582 3.01208 7.83828L7.83825 3.01211ZM8.60362 4.85986C8.79115 4.67233 9.04551 4.56697 9.31072 4.56697L14.6052 4.56697C14.8704 4.56697 15.1248 4.67233 15.3123 4.85986L19.0561 8.60365C19.2437 8.79118 19.349 9.04554 19.349 9.31075L19.349 14.6053C19.349 14.8705 19.2437 15.1248 19.0561 15.3124L15.3123 19.0562C15.1248 19.2437 14.8704 19.349 14.6052 19.349L9.31072 19.349C9.04551 19.349 8.79115 19.2437 8.60362 19.0562L4.85984 15.3124C4.6723 15.1248 4.56694 14.8705 4.56694 14.6053L4.56694 9.31075C4.56694 9.04554 4.6723 8.79118 4.85984 8.60365L8.60362 4.85986ZM14.9297 5.78374C14.7421 5.59621 14.4878 5.49085 14.2225 5.49085L9.69341 5.49085C9.42819 5.49085 9.17384 5.59621 8.9863 5.78374L5.78372 8.98633C5.59618 9.17387 5.49082 9.42822 5.49082 9.69344L5.49082 14.2226C5.49082 14.4878 5.59618 14.7421 5.78372 14.9297L8.9863 18.1323C9.17384 18.3198 9.42819 18.4252 9.69341 18.4252L14.2225 18.4252C14.4878 18.4252 14.7421 18.3198 14.9297 18.1323L18.1322 14.9297C18.3198 14.7421 18.4251 14.4878 18.4251 14.2226L18.4251 9.69344C18.4251 9.42822 18.3198 9.17387 18.1322 8.98633L14.9297 5.78374Z" fill="black" fill-opacity="0.5"/>
</g>
<defs>
<clipPath id="clip0">
<rect width="24" height="24" fill="white"/>
</clipPath>
</defs>
</svg>
