<svg width="22" height="25" viewBox="0 0 22 25" fill="none" xmlns="http://www.w3.org/2000/svg">
<path opacity="0.5" fill-rule="evenodd" clip-rule="evenodd" d="M11 2C11.5523 2 12 2.44772 12 3V4.06189C15.6187 4.51314 18.4869 7.38128 18.9381 11H20C20.5523 11 21 11.4477 21 12C21 12.5523 20.5523 13 20 13H18.9381C18.4869 16.6187 15.6187 19.4869 12 19.9381V21C12 21.5523 11.5523 22 11 22C10.4477 22 10 21.5523 10 21V19.9381C6.38128 19.4869 3.51314 16.6187 3.06189 13H2C1.44772 13 1 12.5523 1 12C1 11.4477 1.44772 11 2 11H3.06189C3.51314 7.38128 6.38128 4.51314 10 4.06189V3C10 2.44772 10.4477 2 11 2ZM5.08296 13C5.50448 15.5125 7.4875 17.4955 10 17.917V13H5.08296ZM10 11H5.08296C5.50448 8.48749 7.4875 6.50448 10 6.08296V11ZM12 13V17.917C14.5125 17.4955 16.4955 15.5125 16.917 13H12ZM16.917 11H12V6.08296C14.5125 6.50448 16.4955 8.48749 16.917 11Z" fill="black"/>
</svg>
